<svg width="82" height="77" viewBox="0 0 82 77" fill="none" xmlns="http://www.w3.org/2000/svg">
<path opacity="0.3" d="M36.839 71.3646C28.2288 65.4585 20.7844 58.0118 14.8809 49.3997C12.3868 46.846 10.9768 43.4267 10.9461 39.8572C10.9414 38.0859 11.2866 36.3311 11.9618 34.6935C12.6371 33.056 13.6291 31.5679 14.8809 30.3147C21.1811 22.0471 28.5669 14.6664 36.839 8.37204C39.3921 5.87687 42.8115 4.46625 46.3813 4.4356C48.1527 4.43077 49.9076 4.77604 51.5452 5.45158C53.1828 6.12713 54.6707 7.11963 55.9236 8.37204C64.0807 14.8022 71.451 22.1721 77.8816 30.329C80.3768 32.8821 81.7874 36.3017 81.818 39.8715C81.8224 41.6429 81.4769 43.3977 80.8014 45.0353C80.1259 46.6728 79.1337 48.1609 77.8816 49.414C71.4571 57.5768 64.0862 64.9478 55.9236 71.3725C54.2978 72.9688 52.3047 74.1411 50.1196 74.7862C48.9051 75.1389 47.646 75.3145 46.3813 75.3074C44.7926 75.2712 43.2218 74.9637 41.7368 74.3981C39.9225 73.715 38.2588 72.6846 36.839 71.3646Z" fill="url(#paint0_linear_2016_6457)"/>
<path d="M20.7229 8.47029C21.0732 11.6209 21.473 16.1899 21.5758 21.7259C21.9987 26.4234 21.7112 31.1577 20.7229 35.7695C19.1714 41.0751 16.7023 42.9522 11.5851 50.1045C7.96828 55.1605 4.72336 60.4725 1.87611 65.9986C1.40421 66.7408 1.11339 67.5835 1.02709 68.4589C0.940777 69.3342 1.06142 70.2175 1.37927 71.0377C1.83032 71.9657 2.495 72.7735 3.31865 73.395C4.1423 74.0164 5.10149 74.4338 6.11763 74.6128C9.93648 74.9041 15.3488 75.2848 21.8804 75.6294C22.6248 75.6656 28.3873 75.9645 36.0992 76.0996C41.8 76.1401 47.4919 75.643 53.0994 74.6148C55.3287 74.4975 57.4215 73.5048 58.9228 71.8525C59.4057 70.9046 59.6657 69.8588 59.6829 68.7951C59.7001 67.7314 59.4739 66.6779 59.0218 65.715C55.1591 54.622 43.7179 48.3359 39.9657 35.9504C38.859 31.6751 38.3736 27.2626 38.5246 22.849C38.4331 17.7471 38.8855 12.65 39.8743 7.64404L20.7229 8.47029Z" fill="white" stroke="#2D2D2D" stroke-width="0.8" stroke-miterlimit="10" stroke-linecap="round"/>
<path d="M17.0379 2.79494C16.6336 3.52325 16.4306 4.34612 16.4497 5.17888C16.4688 6.01164 16.7092 6.82427 17.1464 7.53331C17.9859 8.85639 19.646 9.73583 29.9013 9.72251C40.0995 9.72251 41.7348 8.85258 42.5286 7.53331C42.9313 6.82742 43.1411 6.02803 43.1371 5.21537C43.1331 4.4027 42.9154 3.60535 42.5057 2.90347C41.2778 0.969294 38.7535 1.17679 29.4482 1.15394C20.6568 1.14823 18.2087 0.94834 17.0379 2.79494Z" fill="white" stroke="#2D2D2D" stroke-width="0.8" stroke-miterlimit="10" stroke-linecap="round"/>
<path d="M26.4973 22.1411H35.203" stroke="#2D2D2D" stroke-width="0.8" stroke-miterlimit="10" stroke-linecap="round"/>
<path d="M26.4973 29.8877H35.203" stroke="#2D2D2D" stroke-width="0.8" stroke-miterlimit="10" stroke-linecap="round"/>
<path d="M26.4973 37.6909H35.203" stroke="#2D2D2D" stroke-width="0.8" stroke-miterlimit="10" stroke-linecap="round"/>
<path d="M25.6481 50.4828C27.9535 48.5905 28.2143 50.4828 30.7081 50.4828C33.202 50.4828 33.183 48.5791 35.6254 50.4828C40.4799 54.2788 49.6919 61.8737 45.064 65.6716C40.4361 69.4695 21.9625 69.479 17.1099 65.6716C12.2574 61.8642 21.0201 54.2712 25.6481 50.4828Z" fill="#1778F2"/>
<defs>
<linearGradient id="paint0_linear_2016_6457" x1="46.3821" y1="4.43555" x2="46.3821" y2="75.3076" gradientUnits="userSpaceOnUse">
<stop stop-color="#C7DCFF"/>
<stop offset="1" stop-color="#FFABAF"/>
</linearGradient>
</defs>
</svg>
